<?xml version="1.0" encoding="iso-8859-1"?>
<!-- Generator: Adobe Illustrator 19.0.0, SVG Export Plug-In . SVG Version: 6.00 Build 0)  -->
<svg version="1.1" id="Capa_1" xmlns="http://www.w3.org/2000/svg" xmlns:xlink="http://www.w3.org/1999/xlink" x="0px" y="0px"
	 viewBox="0 0 512.043 512.043" style="enable-background:new 0 0 512.043 512.043;" xml:space="preserve">
<g transform="translate(1 1)">
	<g>
		<g>
			<path d="M169.667,169.709h42.667c11.782,0,21.333-9.551,21.333-21.333c0-11.782-9.551-21.333-21.333-21.333h-42.667
				c-11.782,0-21.333,9.551-21.333,21.333C148.333,160.158,157.885,169.709,169.667,169.709z"/>
			<path d="M340.333,233.709H169.667c-11.782,0-21.333,9.551-21.333,21.333c0,11.782,9.551,21.333,21.333,21.333h170.667
				c11.782,0,21.333-9.551,21.333-21.333C361.667,243.261,352.115,233.709,340.333,233.709z"/>
			<path d="M340.333,340.376H169.667c-11.782,0-21.333,9.551-21.333,21.333s9.551,21.333,21.333,21.333h170.667
				c11.782,0,21.333-9.551,21.333-21.333S352.115,340.376,340.333,340.376z"/>
			<path d="M442.218,134.923c-0.026-0.033-0.052-0.066-0.078-0.099c-0.435-0.522-0.891-1.036-1.388-1.533l-128-128
				c-0.497-0.497-1.011-0.953-1.533-1.388c-0.032-0.027-0.066-0.052-0.099-0.078c-4.375-3.606-9.535-5.071-14.529-4.782H84.333
				C72.551-0.957,63,8.594,63,20.376v469.333c0,11.782,9.551,21.333,21.333,21.333h341.333c11.782,0,21.333-9.551,21.333-21.333
				V149.452C447.289,144.459,445.825,139.298,442.218,134.923z M374.163,127.043H319V71.879L374.163,127.043z M105.667,468.376
				V41.709h170.667v106.667c0,11.782,9.551,21.333,21.333,21.333h106.667v298.667H105.667z"/>
		</g>
	</g>
</g>
<g>
</g>
<g>
</g>
<g>
</g>
<g>
</g>
<g>
</g>
<g>
</g>
<g>
</g>
<g>
</g>
<g>
</g>
<g>
</g>
<g>
</g>
<g>
</g>
<g>
</g>
<g>
</g>
<g>
</g>
</svg>
